<mxfile host="Electron" modified="2023-04-11T15:12:52.237Z" agent="Mozilla/5.0 (X11; Linux x86_64) AppleWebKit/537.36 (KHTML, like Gecko) draw.io/21.1.2 Chrome/106.0.5249.199 Electron/21.4.3 Safari/537.36" etag="RDLJgN1qA_8qpAH8Otxp" version="21.1.2" type="device">
  <diagram name="Sayfa -1" id="7Lhjw-v9jw9NayM5l0I_">
    <mxGraphModel dx="607" dy="843" grid="1" gridSize="10" guides="1" tooltips="1" connect="1" arrows="1" fold="1" page="1" pageScale="1" pageWidth="827" pageHeight="1169" math="0" shadow="0">
      <root>
        <mxCell id="0" />
        <mxCell id="1" parent="0" />
        <mxCell id="VowmGzKHol4ZOxHFDnI4-1" value="" style="rounded=0;whiteSpace=wrap;html=1;fillColor=#dae8fc;strokeColor=#6c8ebf;" parent="1" vertex="1">
          <mxGeometry x="920" y="170" width="1050" height="710" as="geometry" />
        </mxCell>
        <mxCell id="VowmGzKHol4ZOxHFDnI4-11" value="" style="rounded=0;whiteSpace=wrap;html=1;" parent="1" vertex="1">
          <mxGeometry x="940" y="240" width="1010" height="620" as="geometry" />
        </mxCell>
        <mxCell id="VowmGzKHol4ZOxHFDnI4-20" value="" style="rounded=0;whiteSpace=wrap;html=1;fillColor=#d5e8d4;strokeColor=#82b366;" parent="1" vertex="1">
          <mxGeometry x="940" y="280" width="500" height="580" as="geometry" />
        </mxCell>
        <mxCell id="UFZTbXySyzX18lsWo8S3-15" value="" style="edgeStyle=orthogonalEdgeStyle;rounded=0;orthogonalLoop=1;jettySize=auto;html=1;" parent="1" edge="1">
          <mxGeometry relative="1" as="geometry">
            <mxPoint x="290" y="460" as="targetPoint" />
          </mxGeometry>
        </mxCell>
        <mxCell id="UFZTbXySyzX18lsWo8S3-17" value="" style="edgeStyle=orthogonalEdgeStyle;rounded=0;orthogonalLoop=1;jettySize=auto;html=1;" parent="1" edge="1">
          <mxGeometry relative="1" as="geometry">
            <mxPoint x="410.0000000000002" y="460" as="targetPoint" />
          </mxGeometry>
        </mxCell>
        <mxCell id="VowmGzKHol4ZOxHFDnI4-2" value="&lt;font style=&quot;font-size: 22px;&quot;&gt;Master/Server device flow chart&lt;/font&gt;" style="text;html=1;strokeColor=none;fillColor=none;align=center;verticalAlign=middle;whiteSpace=wrap;rounded=0;" parent="1" vertex="1">
          <mxGeometry x="938.13" y="180" width="341.87" height="60" as="geometry" />
        </mxCell>
        <mxCell id="VowmGzKHol4ZOxHFDnI4-5" value="&lt;font style=&quot;font-size: 18px;&quot;&gt;Core 0&lt;/font&gt;" style="text;html=1;strokeColor=none;fillColor=none;align=center;verticalAlign=middle;whiteSpace=wrap;rounded=0;" parent="1" vertex="1">
          <mxGeometry x="940" y="240" width="100" height="40" as="geometry" />
        </mxCell>
        <mxCell id="VowmGzKHol4ZOxHFDnI4-7" value="&lt;font style=&quot;font-size: 18px;&quot;&gt;Core 1&lt;/font&gt;" style="text;html=1;strokeColor=none;fillColor=none;align=center;verticalAlign=middle;whiteSpace=wrap;rounded=0;" parent="1" vertex="1">
          <mxGeometry x="1440" y="240" width="100" height="40" as="geometry" />
        </mxCell>
        <mxCell id="VowmGzKHol4ZOxHFDnI4-14" value="" style="edgeStyle=orthogonalEdgeStyle;rounded=0;orthogonalLoop=1;jettySize=auto;html=1;" parent="1" source="VowmGzKHol4ZOxHFDnI4-9" target="VowmGzKHol4ZOxHFDnI4-13" edge="1">
          <mxGeometry relative="1" as="geometry" />
        </mxCell>
        <mxCell id="VowmGzKHol4ZOxHFDnI4-9" value="" style="ellipse;whiteSpace=wrap;html=1;aspect=fixed;fillColor=#0D0D0D;" parent="1" vertex="1">
          <mxGeometry x="980" y="310" width="45" height="45" as="geometry" />
        </mxCell>
        <mxCell id="VowmGzKHol4ZOxHFDnI4-16" value="" style="edgeStyle=orthogonalEdgeStyle;rounded=0;orthogonalLoop=1;jettySize=auto;html=1;" parent="1" source="VowmGzKHol4ZOxHFDnI4-13" target="VowmGzKHol4ZOxHFDnI4-15" edge="1">
          <mxGeometry relative="1" as="geometry" />
        </mxCell>
        <mxCell id="VowmGzKHol4ZOxHFDnI4-13" value="Read data from the i2c addresses after 1 sec. delay" style="whiteSpace=wrap;html=1;fillColor=#F5F5F5;" parent="1" vertex="1">
          <mxGeometry x="1080" y="302.5" width="140" height="60" as="geometry" />
        </mxCell>
        <mxCell id="VowmGzKHol4ZOxHFDnI4-19" value="" style="edgeStyle=orthogonalEdgeStyle;rounded=0;orthogonalLoop=1;jettySize=auto;html=1;" parent="1" source="VowmGzKHol4ZOxHFDnI4-15" target="VowmGzKHol4ZOxHFDnI4-18" edge="1">
          <mxGeometry relative="1" as="geometry" />
        </mxCell>
        <mxCell id="VowmGzKHol4ZOxHFDnI4-15" value="Send the readed data to&amp;nbsp;sensor_t struct" style="whiteSpace=wrap;html=1;fillColor=#F5F5F5;" parent="1" vertex="1">
          <mxGeometry x="1260" y="302.5" width="120" height="60" as="geometry" />
        </mxCell>
        <mxCell id="VowmGzKHol4ZOxHFDnI4-27" value="" style="edgeStyle=orthogonalEdgeStyle;rounded=0;orthogonalLoop=1;jettySize=auto;html=1;" parent="1" source="VowmGzKHol4ZOxHFDnI4-18" target="VowmGzKHol4ZOxHFDnI4-26" edge="1">
          <mxGeometry relative="1" as="geometry">
            <Array as="points">
              <mxPoint x="1320" y="525" />
            </Array>
          </mxGeometry>
        </mxCell>
        <mxCell id="VowmGzKHol4ZOxHFDnI4-18" value="Add datas inside the struct to ring buffer queue" style="whiteSpace=wrap;html=1;fillColor=#F5F5F5;" parent="1" vertex="1">
          <mxGeometry x="1238.13" y="410" width="163.75" height="60" as="geometry" />
        </mxCell>
        <mxCell id="VowmGzKHol4ZOxHFDnI4-21" value="" style="rounded=0;whiteSpace=wrap;html=1;fillColor=#ffe6cc;strokeColor=#d79b00;" parent="1" vertex="1">
          <mxGeometry x="1440" y="280" width="510" height="580" as="geometry" />
        </mxCell>
        <mxCell id="VowmGzKHol4ZOxHFDnI4-29" style="edgeStyle=orthogonalEdgeStyle;rounded=0;orthogonalLoop=1;jettySize=auto;html=1;" parent="1" source="VowmGzKHol4ZOxHFDnI4-26" target="VowmGzKHol4ZOxHFDnI4-13" edge="1">
          <mxGeometry relative="1" as="geometry" />
        </mxCell>
        <mxCell id="VowmGzKHol4ZOxHFDnI4-32" value="" style="edgeStyle=orthogonalEdgeStyle;rounded=0;orthogonalLoop=1;jettySize=auto;html=1;" parent="1" source="VowmGzKHol4ZOxHFDnI4-26" target="VowmGzKHol4ZOxHFDnI4-31" edge="1">
          <mxGeometry relative="1" as="geometry">
            <Array as="points">
              <mxPoint x="1150" y="630" />
              <mxPoint x="1270" y="630" />
            </Array>
          </mxGeometry>
        </mxCell>
        <mxCell id="VowmGzKHol4ZOxHFDnI4-26" value="Is the ring&lt;br&gt;&amp;nbsp;buffer full?" style="rhombus;whiteSpace=wrap;html=1;fillColor=#F5F5F5;" parent="1" vertex="1">
          <mxGeometry x="1090" y="465" width="120" height="120" as="geometry" />
        </mxCell>
        <mxCell id="VowmGzKHol4ZOxHFDnI4-30" value="No" style="text;html=1;align=center;verticalAlign=middle;resizable=0;points=[];autosize=1;strokeColor=none;fillColor=none;" parent="1" vertex="1">
          <mxGeometry x="1100" y="425" width="40" height="30" as="geometry" />
        </mxCell>
        <mxCell id="VowmGzKHol4ZOxHFDnI4-40" value="" style="edgeStyle=orthogonalEdgeStyle;rounded=0;orthogonalLoop=1;jettySize=auto;html=1;" parent="1" source="VowmGzKHol4ZOxHFDnI4-31" target="VowmGzKHol4ZOxHFDnI4-39" edge="1">
          <mxGeometry relative="1" as="geometry" />
        </mxCell>
        <mxCell id="VowmGzKHol4ZOxHFDnI4-31" value="Do filter the all data inside the ring buffer" style="whiteSpace=wrap;html=1;fillColor=#F5F5F5;" parent="1" vertex="1">
          <mxGeometry x="1210" y="660" width="120" height="60" as="geometry" />
        </mxCell>
        <mxCell id="VowmGzKHol4ZOxHFDnI4-33" value="Yes" style="text;html=1;align=center;verticalAlign=middle;resizable=0;points=[];autosize=1;strokeColor=none;fillColor=none;" parent="1" vertex="1">
          <mxGeometry x="1100" y="590" width="40" height="30" as="geometry" />
        </mxCell>
        <mxCell id="VowmGzKHol4ZOxHFDnI4-42" value="" style="edgeStyle=orthogonalEdgeStyle;rounded=0;orthogonalLoop=1;jettySize=auto;html=1;" parent="1" source="VowmGzKHol4ZOxHFDnI4-34" target="VowmGzKHol4ZOxHFDnI4-36" edge="1">
          <mxGeometry relative="1" as="geometry" />
        </mxCell>
        <mxCell id="VowmGzKHol4ZOxHFDnI4-34" value="Set the status true" style="whiteSpace=wrap;html=1;fillColor=#F5F5F5;" parent="1" vertex="1">
          <mxGeometry x="1030" y="765" width="110" height="60" as="geometry" />
        </mxCell>
        <mxCell id="VowmGzKHol4ZOxHFDnI4-36" value="" style="ellipse;whiteSpace=wrap;html=1;aspect=fixed;fillColor=#0D0D0D;" parent="1" vertex="1">
          <mxGeometry x="1210" y="772.5" width="45" height="45" as="geometry" />
        </mxCell>
        <mxCell id="wgMAAT3yXBF2xn8NiiQg-4" value="" style="edgeStyle=orthogonalEdgeStyle;rounded=0;orthogonalLoop=1;jettySize=auto;html=1;entryX=0;entryY=0.5;entryDx=0;entryDy=0;" edge="1" parent="1" source="VowmGzKHol4ZOxHFDnI4-38" target="wgMAAT3yXBF2xn8NiiQg-5">
          <mxGeometry relative="1" as="geometry" />
        </mxCell>
        <mxCell id="VowmGzKHol4ZOxHFDnI4-38" value="" style="ellipse;whiteSpace=wrap;html=1;aspect=fixed;fillColor=#0D0D0D;" parent="1" vertex="1">
          <mxGeometry x="1480" y="302.5" width="45" height="45" as="geometry" />
        </mxCell>
        <mxCell id="VowmGzKHol4ZOxHFDnI4-41" value="" style="edgeStyle=orthogonalEdgeStyle;rounded=0;orthogonalLoop=1;jettySize=auto;html=1;" parent="1" source="VowmGzKHol4ZOxHFDnI4-39" target="VowmGzKHol4ZOxHFDnI4-34" edge="1">
          <mxGeometry relative="1" as="geometry" />
        </mxCell>
        <mxCell id="VowmGzKHol4ZOxHFDnI4-39" value="Write the filtered data to the volatile float" style="whiteSpace=wrap;html=1;fillColor=#F5F5F5;" parent="1" vertex="1">
          <mxGeometry x="1025" y="660" width="120" height="60" as="geometry" />
        </mxCell>
        <mxCell id="wgMAAT3yXBF2xn8NiiQg-7" style="edgeStyle=orthogonalEdgeStyle;rounded=0;orthogonalLoop=1;jettySize=auto;html=1;" edge="1" parent="1" source="wgMAAT3yXBF2xn8NiiQg-3" target="wgMAAT3yXBF2xn8NiiQg-5">
          <mxGeometry relative="1" as="geometry" />
        </mxCell>
        <mxCell id="wgMAAT3yXBF2xn8NiiQg-10" value="" style="edgeStyle=orthogonalEdgeStyle;rounded=0;orthogonalLoop=1;jettySize=auto;html=1;" edge="1" parent="1" source="wgMAAT3yXBF2xn8NiiQg-3" target="wgMAAT3yXBF2xn8NiiQg-13">
          <mxGeometry relative="1" as="geometry">
            <mxPoint x="1851.294117647059" y="530" as="targetPoint" />
          </mxGeometry>
        </mxCell>
        <mxCell id="wgMAAT3yXBF2xn8NiiQg-3" value="Is Ble device connected?&amp;nbsp;" style="rhombus;whiteSpace=wrap;html=1;fillColor=#F7F7F7;" vertex="1" parent="1">
          <mxGeometry x="1751.25" y="362.5" width="122.5" height="115" as="geometry" />
        </mxCell>
        <mxCell id="wgMAAT3yXBF2xn8NiiQg-6" style="edgeStyle=orthogonalEdgeStyle;rounded=0;orthogonalLoop=1;jettySize=auto;html=1;" edge="1" parent="1" source="wgMAAT3yXBF2xn8NiiQg-5" target="wgMAAT3yXBF2xn8NiiQg-3">
          <mxGeometry relative="1" as="geometry" />
        </mxCell>
        <mxCell id="wgMAAT3yXBF2xn8NiiQg-5" value="2 sec. delay" style="whiteSpace=wrap;html=1;" vertex="1" parent="1">
          <mxGeometry x="1610" y="295" width="100" height="60" as="geometry" />
        </mxCell>
        <mxCell id="wgMAAT3yXBF2xn8NiiQg-8" value="No" style="text;html=1;align=center;verticalAlign=middle;resizable=0;points=[];autosize=1;strokeColor=none;fillColor=none;" vertex="1" parent="1">
          <mxGeometry x="1721.25" y="380" width="40" height="30" as="geometry" />
        </mxCell>
        <mxCell id="wgMAAT3yXBF2xn8NiiQg-11" value="Yes" style="text;html=1;align=center;verticalAlign=middle;resizable=0;points=[];autosize=1;strokeColor=none;fillColor=none;" vertex="1" parent="1">
          <mxGeometry x="1771.25" y="477.5" width="40" height="30" as="geometry" />
        </mxCell>
        <mxCell id="wgMAAT3yXBF2xn8NiiQg-16" value="" style="edgeStyle=orthogonalEdgeStyle;rounded=0;orthogonalLoop=1;jettySize=auto;html=1;" edge="1" parent="1" source="wgMAAT3yXBF2xn8NiiQg-13" target="wgMAAT3yXBF2xn8NiiQg-15">
          <mxGeometry relative="1" as="geometry" />
        </mxCell>
        <mxCell id="wgMAAT3yXBF2xn8NiiQg-18" style="edgeStyle=orthogonalEdgeStyle;rounded=0;orthogonalLoop=1;jettySize=auto;html=1;entryX=1;entryY=0.5;entryDx=0;entryDy=0;" edge="1" parent="1" source="wgMAAT3yXBF2xn8NiiQg-13" target="wgMAAT3yXBF2xn8NiiQg-3">
          <mxGeometry relative="1" as="geometry">
            <Array as="points">
              <mxPoint x="1920" y="585" />
              <mxPoint x="1920" y="420" />
            </Array>
          </mxGeometry>
        </mxCell>
        <mxCell id="wgMAAT3yXBF2xn8NiiQg-13" value="Is the status true and&lt;br&gt;&amp;nbsp;30 sec. passed?" style="rhombus;whiteSpace=wrap;html=1;fillColor=#F7F7F7;" vertex="1" parent="1">
          <mxGeometry x="1742.5" y="514" width="140" height="142" as="geometry" />
        </mxCell>
        <mxCell id="wgMAAT3yXBF2xn8NiiQg-22" value="" style="edgeStyle=orthogonalEdgeStyle;rounded=0;orthogonalLoop=1;jettySize=auto;html=1;" edge="1" parent="1" source="wgMAAT3yXBF2xn8NiiQg-15" target="wgMAAT3yXBF2xn8NiiQg-23">
          <mxGeometry relative="1" as="geometry">
            <mxPoint x="1620" y="684.5" as="targetPoint" />
          </mxGeometry>
        </mxCell>
        <mxCell id="wgMAAT3yXBF2xn8NiiQg-15" value="Send the voltile float data to ble client device." style="whiteSpace=wrap;html=1;fillColor=#F7F7F7;" vertex="1" parent="1">
          <mxGeometry x="1570" y="555" width="120" height="60" as="geometry" />
        </mxCell>
        <mxCell id="wgMAAT3yXBF2xn8NiiQg-17" value="Yes" style="text;html=1;align=center;verticalAlign=middle;resizable=0;points=[];autosize=1;strokeColor=none;fillColor=none;" vertex="1" parent="1">
          <mxGeometry x="1710" y="590" width="40" height="30" as="geometry" />
        </mxCell>
        <mxCell id="wgMAAT3yXBF2xn8NiiQg-19" value="No" style="text;html=1;align=center;verticalAlign=middle;resizable=0;points=[];autosize=1;strokeColor=none;fillColor=none;" vertex="1" parent="1">
          <mxGeometry x="1880" y="590" width="40" height="30" as="geometry" />
        </mxCell>
        <mxCell id="wgMAAT3yXBF2xn8NiiQg-20" value="&lt;font style=&quot;font-size: 22px;&quot;&gt;ESP32-CAM MODULE&lt;/font&gt;" style="text;html=1;strokeColor=none;fillColor=none;align=center;verticalAlign=middle;whiteSpace=wrap;rounded=0;" vertex="1" parent="1">
          <mxGeometry x="1668.13" y="180" width="281.87" height="60" as="geometry" />
        </mxCell>
        <mxCell id="wgMAAT3yXBF2xn8NiiQg-23" value="" style="ellipse;whiteSpace=wrap;html=1;aspect=fixed;fillColor=#0D0D0D;" vertex="1" parent="1">
          <mxGeometry x="1480" y="562" width="45" height="45" as="geometry" />
        </mxCell>
      </root>
    </mxGraphModel>
  </diagram>
</mxfile>
